<?xml version="1.0" encoding="utf-8"?>
<!-- Generator: Adobe Illustrator 19.0.0, SVG Export Plug-In . SVG Version: 6.00 Build 0)  -->
<svg version="1.1" id="Layer_1" xmlns="http://www.w3.org/2000/svg" xmlns:xlink="http://www.w3.org/1999/xlink" x="0px" y="0px"
	 viewBox="0 0 612 931" style="enable-background:new 0 0 612 931;" xml:space="preserve">
<style type="text/css">
	.st0{fill:#00ADEE;}
</style>
<path class="st0" d="M394.6,889.5v4.9c0,0.3,0.2,0.3,0.3,0.1l8.6-8.2c0.2-0.2,0.2-0.5,0-0.7l-8.6-8.8c-0.2-0.2-0.3-0.1-0.3,0.1v4.7
	c0,0.3-0.2,0.5-0.5,0.5h-4.5c-0.3,0-0.6-0.2-0.7-0.4l-1.7-3.2c-0.1-0.2-0.4-0.4-0.7-0.4h-8.9c-0.3,0-0.4,0.2-0.2,0.4l3.9,6.6
	c0.1,0.2,0.1,0.6,0,0.8l-3.8,6.8c-0.1,0.2,0,0.4,0.2,0.4h8.6c0.3,0,0.6-0.2,0.7-0.4l1.8-3.5c0.1-0.2,0.4-0.4,0.7-0.4h4.6
	C394.4,889,394.6,889.2,394.6,889.5z"/>
</svg>
